<svg height="3758" width="720" xmlns="http://www.w3.org/2000/svg">
<rect height="3758" fill="#555" width="720"></rect>
<text fill="#7f7" font-family="Courier New" font-size="12" xml:space="preserve">
<tspan x="10" y="26">27 megabytes installed</tspan>
<tspan x="10" y="42"></tspan>
<tspan x="10" y="58">node_modules</tspan>
<tspan x="10" y="74">└─┬ electron-installer-squirrel-windows@1.3.0 </tspan>
<tspan x="10" y="90">  ├─┬ ampersand-model@6.0.3 </tspan>
<tspan x="10" y="106">  │ ├─┬ ampersand-state@4.9.1 </tspan>
<tspan x="10" y="122">  │ │ ├─┬ ampersand-events@1.1.1 </tspan>
<tspan x="10" y="138">  │ │ │ ├── lodash.assign@3.2.0 </tspan>
<tspan x="10" y="154">  │ │ │ ├─┬ lodash.foreach@3.0.3 </tspan>
<tspan x="10" y="170">  │ │ │ │ └── lodash._baseeach@3.0.4 </tspan>
<tspan x="10" y="186">  │ │ │ ├── lodash.isempty@3.0.4 </tspan>
<tspan x="10" y="202">  │ │ │ └─┬ lodash.once@3.0.1 </tspan>
<tspan x="10" y="218">  │ │ │   └── lodash.before@3.0.3 </tspan>
<tspan x="10" y="234">  │ │ ├── array-next@0.0.1 </tspan>
<tspan x="10" y="250">  │ │ ├── key-tree-store@1.3.0 </tspan>
<tspan x="10" y="266">  │ │ ├── lodash.assign@3.2.0 </tspan>
<tspan x="10" y="282">  │ │ ├─┬ lodash.bind@3.1.0 </tspan>
<tspan x="10" y="298">  │ │ │ ├── lodash._createwrapper@3.2.0 </tspan>
<tspan x="10" y="314">  │ │ │ └── lodash._replaceholders@3.0.0 </tspan>
<tspan x="10" y="330">  │ │ ├─┬ lodash.escape@3.2.0 </tspan>
<tspan x="10" y="346">  │ │ │ └── lodash._root@3.0.1 </tspan>
<tspan x="10" y="362">  │ │ ├── lodash.forown@3.0.2 </tspan>
<tspan x="10" y="378">  │ │ ├── lodash.has@3.2.1 </tspan>
<tspan x="10" y="394">  │ │ ├─┬ lodash.includes@3.1.3 </tspan>
<tspan x="10" y="410">  │ │ │ ├── lodash._baseindexof@3.1.0 </tspan>
<tspan x="10" y="426">  │ │ │ └── lodash._basevalues@3.0.0 </tspan>
<tspan x="10" y="442">  │ │ ├── lodash.isarray@3.0.4 </tspan>
<tspan x="10" y="458">  │ │ ├── lodash.isdate@3.0.3 </tspan>
<tspan x="10" y="474">  │ │ ├─┬ lodash.isequal@3.0.4 </tspan>
<tspan x="10" y="490">  │ │ │ └─┬ lodash._baseisequal@3.0.7 </tspan>
<tspan x="10" y="506">  │ │ │   └── lodash.istypedarray@3.0.6 </tspan>
<tspan x="10" y="522">  │ │ ├── lodash.isfunction@3.0.8 </tspan>
<tspan x="10" y="538">  │ │ ├── lodash.isstring@3.0.1 </tspan>
<tspan x="10" y="554">  │ │ ├─┬ lodash.omit@3.1.0 </tspan>
<tspan x="10" y="570">  │ │ │ ├── lodash._arraymap@3.0.0 </tspan>
<tspan x="10" y="586">  │ │ │ ├─┬ lodash._basedifference@3.0.3 </tspan>
<tspan x="10" y="602">  │ │ │ │ ├── lodash._cacheindexof@3.0.2 </tspan>
<tspan x="10" y="618">  │ │ │ │ └── lodash._createcache@3.1.2 </tspan>
<tspan x="10" y="634">  │ │ │ ├── lodash._baseflatten@3.1.4 </tspan>
<tspan x="10" y="650">  │ │ │ ├── lodash._pickbyarray@3.0.2 </tspan>
<tspan x="10" y="666">  │ │ │ ├── lodash._pickbycallback@3.0.0 </tspan>
<tspan x="10" y="682">  │ │ │ └── lodash.keysin@3.0.8 </tspan>
<tspan x="10" y="698">  │ │ ├─┬ lodash.union@3.1.0 </tspan>
<tspan x="10" y="714">  │ │ │ └── lodash._baseuniq@3.0.3 </tspan>
<tspan x="10" y="730">  │ │ └── lodash.uniqueid@3.2.0 </tspan>
<tspan x="10" y="746">  │ ├─┬ ampersand-sync@4.0.3 </tspan>
<tspan x="10" y="762">  │ │ ├── lodash.assign@3.2.0 </tspan>
<tspan x="10" y="778">  │ │ ├─┬ lodash.defaults@3.1.2 </tspan>
<tspan x="10" y="794">  │ │ │ └── lodash.assign@3.2.0 </tspan>
<tspan x="10" y="810">  │ │ ├── media-type@0.3.0 </tspan>
<tspan x="10" y="826">  │ │ ├── qs@4.0.0 </tspan>
<tspan x="10" y="842">  │ │ ├─┬ request@2.81.0 </tspan>
<tspan x="10" y="858">  │ │ │ ├── aws-sign2@0.6.0 </tspan>
<tspan x="10" y="874">  │ │ │ ├── aws4@1.6.0 </tspan>
<tspan x="10" y="890">  │ │ │ ├── caseless@0.12.0 </tspan>
<tspan x="10" y="906">  │ │ │ ├─┬ combined-stream@1.0.5 </tspan>
<tspan x="10" y="922">  │ │ │ │ └── delayed-stream@1.0.0 </tspan>
<tspan x="10" y="938">  │ │ │ ├── extend@3.0.0 </tspan>
<tspan x="10" y="954">  │ │ │ ├── forever-agent@0.6.1 </tspan>
<tspan x="10" y="970">  │ │ │ ├─┬ form-data@2.1.4 </tspan>
<tspan x="10" y="986">  │ │ │ │ └── asynckit@0.4.0 </tspan>
<tspan x="10" y="1002">  │ │ │ ├─┬ har-validator@4.2.1 </tspan>
<tspan x="10" y="1018">  │ │ │ │ ├─┬ ajv@4.11.7 </tspan>
<tspan x="10" y="1034">  │ │ │ │ │ ├── co@4.6.0 </tspan>
<tspan x="10" y="1050">  │ │ │ │ │ └─┬ json-stable-stringify@1.0.1 </tspan>
<tspan x="10" y="1066">  │ │ │ │ │   └── jsonify@0.0.0 </tspan>
<tspan x="10" y="1082">  │ │ │ │ └── har-schema@1.0.5 </tspan>
<tspan x="10" y="1098">  │ │ │ ├─┬ hawk@3.1.3 </tspan>
<tspan x="10" y="1114">  │ │ │ │ ├── boom@2.10.1 </tspan>
<tspan x="10" y="1130">  │ │ │ │ ├── cryptiles@2.0.5 </tspan>
<tspan x="10" y="1146">  │ │ │ │ ├── hoek@2.16.3 </tspan>
<tspan x="10" y="1162">  │ │ │ │ └── sntp@1.0.9 </tspan>
<tspan x="10" y="1178">  │ │ │ ├─┬ http-signature@1.1.1 </tspan>
<tspan x="10" y="1194">  │ │ │ │ ├── assert-plus@0.2.0 </tspan>
<tspan x="10" y="1210">  │ │ │ │ ├─┬ jsprim@1.4.0 </tspan>
<tspan x="10" y="1226">  │ │ │ │ │ ├── assert-plus@1.0.0 </tspan>
<tspan x="10" y="1242">  │ │ │ │ │ ├── extsprintf@1.0.2 </tspan>
<tspan x="10" y="1258">  │ │ │ │ │ ├── json-schema@0.2.3 </tspan>
<tspan x="10" y="1274">  │ │ │ │ │ └── verror@1.3.6 </tspan>
<tspan x="10" y="1290">  │ │ │ │ └─┬ sshpk@1.13.0 </tspan>
<tspan x="10" y="1306">  │ │ │ │   ├── asn1@0.2.3 </tspan>
<tspan x="10" y="1322">  │ │ │ │   ├── assert-plus@1.0.0 </tspan>
<tspan x="10" y="1338">  │ │ │ │   ├── bcrypt-pbkdf@1.0.1 </tspan>
<tspan x="10" y="1354">  │ │ │ │   ├─┬ dashdash@1.14.1 </tspan>
<tspan x="10" y="1370">  │ │ │ │   │ └── assert-plus@1.0.0 </tspan>
<tspan x="10" y="1386">  │ │ │ │   ├── ecc-jsbn@0.1.1 </tspan>
<tspan x="10" y="1402">  │ │ │ │   ├─┬ getpass@0.1.6 </tspan>
<tspan x="10" y="1418">  │ │ │ │   │ └── assert-plus@1.0.0 </tspan>
<tspan x="10" y="1434">  │ │ │ │   ├── jodid25519@1.0.2 </tspan>
<tspan x="10" y="1450">  │ │ │ │   ├── jsbn@0.1.1 </tspan>
<tspan x="10" y="1466">  │ │ │ │   └── tweetnacl@0.14.5 </tspan>
<tspan x="10" y="1482">  │ │ │ ├── is-typedarray@1.0.0 </tspan>
<tspan x="10" y="1498">  │ │ │ ├── isstream@0.1.2 </tspan>
<tspan x="10" y="1514">  │ │ │ ├── json-stringify-safe@5.0.1 </tspan>
<tspan x="10" y="1530">  │ │ │ ├─┬ mime-types@2.1.15 </tspan>
<tspan x="10" y="1546">  │ │ │ │ └── mime-db@1.27.0 </tspan>
<tspan x="10" y="1562">  │ │ │ ├── oauth-sign@0.8.2 </tspan>
<tspan x="10" y="1578">  │ │ │ ├── performance-now@0.2.0 </tspan>
<tspan x="10" y="1594">  │ │ │ ├── qs@6.4.0 </tspan>
<tspan x="10" y="1610">  │ │ │ ├── safe-buffer@5.0.1 </tspan>
<tspan x="10" y="1626">  │ │ │ ├── stringstream@0.0.5 </tspan>
<tspan x="10" y="1642">  │ │ │ ├─┬ tough-cookie@2.3.2 </tspan>
<tspan x="10" y="1658">  │ │ │ │ └── punycode@1.4.1 </tspan>
<tspan x="10" y="1674">  │ │ │ ├── tunnel-agent@0.6.0 </tspan>
<tspan x="10" y="1690">  │ │ │ └── uuid@3.0.1 </tspan>
<tspan x="10" y="1706">  │ │ └─┬ xhr@2.4.0 </tspan>
<tspan x="10" y="1722">  │ │   ├─┬ global@4.3.2 </tspan>
<tspan x="10" y="1738">  │ │   │ ├─┬ min-document@2.19.0 </tspan>
<tspan x="10" y="1754">  │ │   │ │ └── dom-walk@0.1.1 </tspan>
<tspan x="10" y="1770">  │ │   │ └── process@0.5.2 </tspan>
<tspan x="10" y="1786">  │ │   ├── is-function@1.0.1 </tspan>
<tspan x="10" y="1802">  │ │   ├─┬ parse-headers@2.0.1 </tspan>
<tspan x="10" y="1818">  │ │   │ ├── for-each@0.3.2 </tspan>
<tspan x="10" y="1834">  │ │   │ └── trim@0.0.1 </tspan>
<tspan x="10" y="1850">  │ │   └── xtend@4.0.1 </tspan>
<tspan x="10" y="1866">  │ ├─┬ ampersand-version@1.0.2 </tspan>
<tspan x="10" y="1882">  │ │ ├── find-root@0.1.2 </tspan>
<tspan x="10" y="1898">  │ │ └─┬ through2@0.6.5 </tspan>
<tspan x="10" y="1914">  │ │   └─┬ readable-stream@1.0.34 </tspan>
<tspan x="10" y="1930">  │ │     ├── core-util-is@1.0.2 </tspan>
<tspan x="10" y="1946">  │ │     ├── isarray@0.0.1 </tspan>
<tspan x="10" y="1962">  │ │     └── string_decoder@0.10.31 </tspan>
<tspan x="10" y="1978">  │ ├─┬ lodash.assign@3.2.0 </tspan>
<tspan x="10" y="1994">  │ │ ├─┬ lodash._baseassign@3.2.0 </tspan>
<tspan x="10" y="2010">  │ │ │ └── lodash._basecopy@3.0.1 </tspan>
<tspan x="10" y="2026">  │ │ ├─┬ lodash._createassigner@3.1.1 </tspan>
<tspan x="10" y="2042">  │ │ │ └── lodash.restparam@3.6.1 </tspan>
<tspan x="10" y="2058">  │ │ └─┬ lodash.keys@3.1.2 </tspan>
<tspan x="10" y="2074">  │ │   ├── lodash._getnative@3.9.1 </tspan>
<tspan x="10" y="2090">  │ │   └── lodash.isarguments@3.1.0 </tspan>
<tspan x="10" y="2106">  │ ├─┬ lodash.clone@3.0.3 </tspan>
<tspan x="10" y="2122">  │ │ ├─┬ lodash._baseclone@3.3.0 </tspan>
<tspan x="10" y="2138">  │ │ │ ├── lodash._arraycopy@3.0.0 </tspan>
<tspan x="10" y="2154">  │ │ │ ├── lodash._arrayeach@3.0.0 </tspan>
<tspan x="10" y="2170">  │ │ │ └── lodash._basefor@3.0.3 </tspan>
<tspan x="10" y="2186">  │ │ ├── lodash._bindcallback@3.0.1 </tspan>
<tspan x="10" y="2202">  │ │ └── lodash._isiterateecall@3.0.9 </tspan>
<tspan x="10" y="2218">  │ ├── lodash.isobject@3.0.2 </tspan>
<tspan x="10" y="2234">  │ └─┬ lodash.result@3.1.2 </tspan>
<tspan x="10" y="2250">  │   ├── lodash._baseget@3.7.2 </tspan>
<tspan x="10" y="2266">  │   ├── lodash._baseslice@3.0.3 </tspan>
<tspan x="10" y="2282">  │   └── lodash._topath@3.8.1 </tspan>
<tspan x="10" y="2298">  ├─┬ asar@0.9.1 </tspan>
<tspan x="10" y="2314">  │ ├── chromium-pickle-js@0.1.0 </tspan>
<tspan x="10" y="2330">  │ ├── commander@2.3.0 </tspan>
<tspan x="10" y="2346">  │ ├── cuint@0.1.5 </tspan>
<tspan x="10" y="2362">  │ ├─┬ glob@5.0.15 </tspan>
<tspan x="10" y="2378">  │ │ ├─┬ inflight@1.0.6 </tspan>
<tspan x="10" y="2394">  │ │ │ └── wrappy@1.0.2 </tspan>
<tspan x="10" y="2410">  │ │ ├── inherits@2.0.3 </tspan>
<tspan x="10" y="2426">  │ │ └── once@1.4.0 </tspan>
<tspan x="10" y="2442">  │ ├─┬ minimatch@2.0.4 </tspan>
<tspan x="10" y="2458">  │ │ └─┬ brace-expansion@1.1.7 </tspan>
<tspan x="10" y="2474">  │ │   ├── balanced-match@0.4.2 </tspan>
<tspan x="10" y="2490">  │ │   └── concat-map@0.0.1 </tspan>
<tspan x="10" y="2506">  │ ├─┬ mkdirp@0.5.1 </tspan>
<tspan x="10" y="2522">  │ │ └── minimist@0.0.8 </tspan>
<tspan x="10" y="2538">  │ └─┬ mksnapshot@0.1.0 </tspan>
<tspan x="10" y="2554">  │   ├─┬ decompress-zip@0.1.0 </tspan>
<tspan x="10" y="2570">  │   │ ├─┬ binary@0.3.0 </tspan>
<tspan x="10" y="2586">  │   │ │ ├── buffers@0.1.1 </tspan>
<tspan x="10" y="2602">  │   │ │ └─┬ chainsaw@0.1.0 </tspan>
<tspan x="10" y="2618">  │   │ │   └── traverse@0.3.9 </tspan>
<tspan x="10" y="2634">  │   │ ├─┬ graceful-fs@3.0.11 </tspan>
<tspan x="10" y="2650">  │   │ │ └── natives@1.1.0 </tspan>
<tspan x="10" y="2666">  │   │ ├── mkpath@0.1.0 </tspan>
<tspan x="10" y="2682">  │   │ ├─┬ nopt@3.0.6 </tspan>
<tspan x="10" y="2698">  │   │ │ └── abbrev@1.1.0 </tspan>
<tspan x="10" y="2714">  │   │ ├── q@1.5.0 </tspan>
<tspan x="10" y="2730">  │   │ ├── readable-stream@1.1.14 </tspan>
<tspan x="10" y="2746">  │   │ └─┬ touch@0.0.3 </tspan>
<tspan x="10" y="2762">  │   │   └── nopt@1.0.10 </tspan>
<tspan x="10" y="2778">  │   ├── fs-extra@0.18.2 </tspan>
<tspan x="10" y="2794">  │   └─┬ request@2.55.0 </tspan>
<tspan x="10" y="2810">  │     ├── aws-sign2@0.5.0 </tspan>
<tspan x="10" y="2826">  │     ├── bl@0.9.5 </tspan>
<tspan x="10" y="2842">  │     ├── caseless@0.9.0 </tspan>
<tspan x="10" y="2858">  │     ├─┬ combined-stream@0.0.7 </tspan>
<tspan x="10" y="2874">  │     │ └── delayed-stream@0.0.5 </tspan>
<tspan x="10" y="2890">  │     ├─┬ form-data@0.2.0 </tspan>
<tspan x="10" y="2906">  │     │ └── async@0.9.2 </tspan>
<tspan x="10" y="2922">  │     ├─┬ har-validator@1.8.0 </tspan>
<tspan x="10" y="2938">  │     │ ├── bluebird@2.11.0 </tspan>
<tspan x="10" y="2954">  │     │ ├─┬ chalk@1.1.3 </tspan>
<tspan x="10" y="2970">  │     │ │ ├── ansi-styles@2.2.1 </tspan>
<tspan x="10" y="2986">  │     │ │ ├── escape-string-regexp@1.0.5 </tspan>
<tspan x="10" y="3002">  │     │ │ ├─┬ has-ansi@2.0.0 </tspan>
<tspan x="10" y="3018">  │     │ │ │ └── ansi-regex@2.1.1 </tspan>
<tspan x="10" y="3034">  │     │ │ ├── strip-ansi@3.0.1 </tspan>
<tspan x="10" y="3050">  │     │ │ └── supports-color@2.0.0 </tspan>
<tspan x="10" y="3066">  │     │ ├─┬ commander@2.9.0 </tspan>
<tspan x="10" y="3082">  │     │ │ └── graceful-readlink@1.0.1 </tspan>
<tspan x="10" y="3098">  │     │ └─┬ is-my-json-valid@2.16.0 </tspan>
<tspan x="10" y="3114">  │     │   ├── generate-function@2.0.0 </tspan>
<tspan x="10" y="3130">  │     │   ├─┬ generate-object-property@1.2.0 </tspan>
<tspan x="10" y="3146">  │     │   │ └── is-property@1.0.2 </tspan>
<tspan x="10" y="3162">  │     │   └── jsonpointer@4.0.1 </tspan>
<tspan x="10" y="3178">  │     ├── hawk@2.3.1 </tspan>
<tspan x="10" y="3194">  │     ├─┬ http-signature@0.10.1 </tspan>
<tspan x="10" y="3210">  │     │ ├── asn1@0.1.11 </tspan>
<tspan x="10" y="3226">  │     │ ├── assert-plus@0.1.5 </tspan>
<tspan x="10" y="3242">  │     │ └── ctype@0.5.3 </tspan>
<tspan x="10" y="3258">  │     ├─┬ mime-types@2.0.14 </tspan>
<tspan x="10" y="3274">  │     │ └── mime-db@1.12.0 </tspan>
<tspan x="10" y="3290">  │     ├── node-uuid@1.4.8 </tspan>
<tspan x="10" y="3306">  │     ├── oauth-sign@0.6.0 </tspan>
<tspan x="10" y="3322">  │     ├── qs@2.4.2 </tspan>
<tspan x="10" y="3338">  │     └── tunnel-agent@0.4.3 </tspan>
<tspan x="10" y="3354">  ├── async@1.5.2 </tspan>
<tspan x="10" y="3370">  ├─┬ debug@2.6.3 </tspan>
<tspan x="10" y="3386">  │ └── ms@0.7.2 </tspan>
<tspan x="10" y="3402">  ├─┬ fs-extra@0.26.7 </tspan>
<tspan x="10" y="3418">  │ ├── graceful-fs@4.1.11 </tspan>
<tspan x="10" y="3434">  │ ├─┬ jsonfile@2.4.0 </tspan>
<tspan x="10" y="3450">  │ │ └── graceful-fs@4.1.11 </tspan>
<tspan x="10" y="3466">  │ ├─┬ klaw@1.3.1 </tspan>
<tspan x="10" y="3482">  │ │ └── graceful-fs@4.1.11 </tspan>
<tspan x="10" y="3498">  │ ├── path-is-absolute@1.0.1 </tspan>
<tspan x="10" y="3514">  │ └─┬ rimraf@2.6.1 </tspan>
<tspan x="10" y="3530">  │   └─┬ glob@7.1.1 </tspan>
<tspan x="10" y="3546">  │     ├── fs.realpath@1.0.0 </tspan>
<tspan x="10" y="3562">  │     └── minimatch@3.0.3 </tspan>
<tspan x="10" y="3578">  ├── lodash.assign@4.2.0 </tspan>
<tspan x="10" y="3594">  ├── lodash.clone@4.5.0 </tspan>
<tspan x="10" y="3610">  ├── lodash.foreach@4.5.0 </tspan>
<tspan x="10" y="3626">  ├─┬ lodash.template@4.4.0 </tspan>
<tspan x="10" y="3642">  │ ├── lodash._reinterpolate@3.0.0 </tspan>
<tspan x="10" y="3658">  │ └── lodash.templatesettings@4.1.0 </tspan>
<tspan x="10" y="3674">  ├── minimist@1.2.0 </tspan>
<tspan x="10" y="3690">  ├─┬ temp@0.8.3 </tspan>
<tspan x="10" y="3706">  │ ├── os-tmpdir@1.0.2 </tspan>
<tspan x="10" y="3722">  │ └── rimraf@2.2.8 </tspan>
<tspan x="10" y="3738">  └── titlecase@1.1.2</tspan>
</text>
</svg>
